<!DOCTYPE svg PUBLIC "-//W3C//DTD SVG 1.1//EN" "http://www.w3.org/Graphics/SVG/1.1/DTD/svg11.dtd">
<!-- Uploaded to: SVG Repo, www.svgrepo.com, Transformed by: SVG Repo Mixer Tools -->
<svg fill="#3776ff" version="1.1" id="Layer_1" xmlns="http://www.w3.org/2000/svg" xmlns:xlink="http://www.w3.org/1999/xlink" viewBox="0 0 290.627 290.627" xml:space="preserve" width="800px" height="800px">
<g id="SVGRepo_bgCarrier" stroke-width="0"/>
<g id="SVGRepo_tracerCarrier" stroke-linecap="round" stroke-linejoin="round"/>
<g id="SVGRepo_iconCarrier"> <g> <g> <g> <path d="M204.863,248.438h6.075v-9.375h-6.422l-2.606-70.313h13.716v-9.375h-14.063l-0.005-0.173l-4.683,0.173v-51.563h9.375V75 h-9.375v4.688h-9.374V51.563h4.688v-9.375h-6.084c-3.384-7.664-12.323-18.028-29.592-18.712 c-0.727-1.955-1.523-6.094-1.842-9.802l-0.361-4.298h-4.309V0h-9.375v9.375h-4.313l-0.356,4.298 c-0.309,3.703-1.106,7.847-1.842,9.802c-17.269,0.684-26.208,11.048-29.592,18.712h-6.084v9.375h4.688v28.125h-9.376V75h-9.375 v32.813h9.375v51.563l-4.683-0.173l-0.005,0.173H75.001v9.375h13.716l-2.606,70.313h-6.422v9.375h6.075l-1.214,32.813H0.001 v9.375h271.875v-9.375h-65.798L204.863,248.438z M187.501,89.063h9.375v9.375h-9.375V89.063z M121.876,168.75v51.563H96.184 l1.908-51.563H121.876z M103.126,159.375V150h18.75v9.375H103.126z M194.79,229.688l0.347,9.375H95.49l0.347-9.375H194.79z M159.376,107.813v32.813h-28.125v-32.813H159.376z M135.939,98.438v-9.375h18.75v9.375H135.939z M159.376,150v9.375h-28.125V150 H159.376z M159.376,168.75v51.563h-28.125V168.75H159.376z M192.535,168.75l1.908,51.563h-25.692V168.75H192.535z M168.751,159.375V150h18.75v9.375H168.751z M187.501,107.812v32.813h-18.75v-32.813H187.501z M178.127,98.438h-14.063v-9.375 h14.063V98.438z M175.276,42.188h-6.923c-0.267-2.006-0.722-4.439-1.462-6.881C170.879,37.172,173.537,39.792,175.276,42.188z M135.938,32.813c1.772,0,6.854,0,8.883-14.063h0.989c2.025,14.063,7.106,14.063,8.878,14.063c1.603,0,3.356,4.228,4.2,9.375 h-27.145C132.563,37.299,134.251,32.813,135.938,32.813z M123.732,35.311c-0.736,2.442-1.195,4.87-1.458,6.877h-6.919 C117.095,39.802,119.753,37.177,123.732,35.311z M112.501,51.563h65.625v28.125h-14.063V75h-9.375v4.688h-18.75V75h-9.375v4.688 h-14.062V51.563z M112.501,89.063h14.063v9.375h-14.063V89.063z M121.876,107.813v32.813h-18.75v-32.813H121.876z M93.751,89.063 h9.375v9.375h-9.375V89.063z M121.876,281.251H93.924l1.219-32.813h26.733V281.251z M159.376,281.251h-28.125v-32.813h28.125 V281.251z M168.751,281.25v-32.813h26.733l1.219,32.813H168.751z"/> <rect x="103.126" y="257.813" width="9.375" height="14.063"/> <rect x="140.626" y="257.813" width="9.375" height="14.063"/> <rect x="178.126" y="257.813" width="9.375" height="14.063"/> <rect x="103.126" y="196.875" width="9.375" height="14.063"/> <rect x="140.626" y="196.875" width="9.375" height="14.063"/> <rect x="178.126" y="196.875" width="9.375" height="14.063"/> <rect x="140.626" y="117.188" width="9.375" height="14.063"/> <rect x="107.814" y="117.188" width="9.375" height="14.063"/> <rect x="173.439" y="117.188" width="9.375" height="14.063"/> <rect x="140.626" y="178.125" width="9.375" height="9.375"/> <rect x="103.126" y="178.125" width="9.375" height="9.375"/> <rect x="178.126" y="178.125" width="9.375" height="9.375"/> <rect x="117.189" y="56.25" width="9.375" height="9.375"/> <rect x="135.939" y="56.25" width="9.375" height="9.375"/> <rect x="281.251" y="281.25" width="9.375" height="9.375"/> </g> </g> </g> </g>
</svg>